<?xml version="1.0" standalone="no"?>
<!DOCTYPE svg PUBLIC "-//W3C//DTD SVG 20010904//EN"
 "http://www.w3.org/TR/2001/REC-SVG-20010904/DTD/svg10.dtd">
<svg version="1.0" xmlns="http://www.w3.org/2000/svg"
 width="512.000000pt" height="512.000000pt" viewBox="0 0 512.000000 512.000000"
 preserveAspectRatio="xMidYMid meet">
<metadata>
Created by potrace 1.14, written by Peter Selinger 2001-2017
</metadata>
<g transform="translate(0.000000,512.000000) scale(0.100000,-0.100000)"
fill="#000000" stroke="none">
<path d="M1459 5106 c-2 -3 -29 -7 -59 -10 -133 -12 -267 -49 -373 -102 -248
-125 -390 -320 -456 -628 -17 -79 -23 -120 -36 -240 -1 -11 -3 -111 -4 -221
l-1 -200 -262 0 -263 0 -3 -428 c-1 -235 1 -427 5 -428 19 -2 63 -7 138 -14
44 -4 88 -9 97 -10 9 -2 48 -6 85 -10 109 -9 167 -16 185 -21 17 -5 18 -80 18
-1395 l0 -1389 635 0 635 0 0 43 c1 23 2 649 3 1392 l2 1349 343 0 c188 0 343
3 343 6 1 3 2 205 3 448 1 386 -1 445 -14 451 -8 4 -167 7 -353 6 l-339 -1 4
216 c5 230 11 262 60 306 34 31 60 43 115 50 58 8 280 7 421 -1 56 -3 103 -3
103 2 1 4 2 167 3 361 1 396 9 361 -79 381 -107 24 -310 57 -400 66 -38 4 -83
9 -100 12 -38 6 -451 14 -456 9z"/>
<path d="M4010 5095 c-143 -22 -160 -26 -239 -51 -137 -45 -265 -124 -354
-219 -94 -99 -184 -271 -213 -406 -44 -209 -52 -284 -53 -549 l-1 -166 -264 1
-263 0 0 -427 c-1 -411 0 -428 18 -429 11 -1 22 -2 27 -3 7 -2 128 -15 197
-22 22 -2 60 -6 85 -8 71 -8 174 -19 188 -19 9 0 12 -286 12 -1394 l0 -1393
637 2 638 3 1 1385 c1 762 2 1387 3 1390 0 3 152 5 336 4 225 0 338 3 344 10
4 6 8 211 7 456 l-1 445 -350 0 -350 0 -1 183 c-3 363 27 396 352 394 72 0
181 -3 241 -6 l109 -6 0 365 c0 323 -1 365 -15 369 -16 5 -156 34 -201 42 -39
7 -132 23 -165 28 -16 3 -55 8 -85 11 -30 3 -73 8 -95 11 -103 12 -464 12
-545 -1z"/>
</g>
</svg>
