<?xml version="1.0" encoding="UTF-8" standalone="no"?>
<!DOCTYPE svg PUBLIC "-//W3C//DTD SVG 1.1//EN" "http://www.w3.org/Graphics/SVG/1.1/DTD/svg11.dtd">
<!-- Created with Vectornator (http://vectornator.io/) -->
<svg height="100%" stroke-miterlimit="10" style="fill-rule:nonzero;clip-rule:evenodd;stroke-linecap:round;stroke-linejoin:round;" version="1.1" viewBox="0 0 227.2 46.9" width="100%" xml:space="preserve" xmlns="http://www.w3.org/2000/svg" xmlns:xlink="http://www.w3.org/1999/xlink">
<defs/>
<clipPath id="ArtboardFrame">
<rect height="46.9" width="227.2" x="0" y="0"/>
</clipPath>
<g clip-path="url(#ArtboardFrame)" id="Untitled">
<g opacity="1">
<path d="M227.2 10.2L217.1 10.2L214.1 23.4C213.6 25.7 213.1 28.3 212.8 30.5C212.3 28.3 211.9 26.1 211.4 23.4L208.2 10.2L197.5 10.2L206.9 36.6L206.4 38C205.8 39.9 205.2 40.4 203.6 40.4C202 40.4 200.9 40.4 198.5 40.3L198.5 46.2C200.8 46.7 204 46.9 207.2 46.9C214 46.9 217.1 44.2 219.4 36.3L227.2 10.2ZM195.1 36.9L195.1 31.2C194.5 31.2 192.9 31.3 191.7 31.3C189.8 31.3 189.8 30.8 189.8 28.9L189.8 16.8L195.2 16.8L195.2 10.2L189.8 10.2L189.8 3.5L179.8 3.5L179.8 10.2L175.4 10.2L175.4 16.4L179.8 16.8L179.8 29C179.8 35.3 182.6 37.7 188.7 37.7C191.7 37.7 194.4 37.1 195.1 36.9M173.1 16.8L173.1 10.2L167.5 10.2L167.5 8.5C167.5 6.6 167.7 6 169.7 6C170.6 6 171.5 6 173.1 6.1L173.1 0.8C171.2 0.4 168.7 0 166.2 0C160.4 0 157.4 2.5 157.4 8.4L157.4 10.2L153.2 10.2L153.2 16.4L157.4 16.8L157.4 37L167.5 37L167.5 16.8L173.1 16.8ZM149.2 0.7L138.8 0.7L138.8 7L149.2 7L149.2 0.7ZM149 10.2L139 10.2L139 37L149 37L149 10.2ZM134.5 16.8L134.5 10.2L128.9 10.2L128.9 8.5C128.9 6.6 129.1 6 131.1 6C132 6 132.9 6 134.5 6.1L134.5 0.8C132.6 0.4 130.1 0 127.6 0C121.8 0 118.8 2.5 118.8 8.4L118.8 10.2L114.6 10.2L114.6 16.4L118.8 16.8L118.8 37L128.9 37L128.9 16.8L134.5 16.8Z" fill="#773573" fill-rule="nonzero" opacity="1" stroke="none"/>
<path d="M112.6 10.2L102.5 10.2L99.5 23.4C99 25.7 98.5 28.3 98.2 30.5C97.7 28.3 97.3 26.1 96.8 23.4L93.6 10.2L82.9 10.2L92.3 36.6L91.8 38C91.2 39.9 90.6 40.4 89 40.4C87.4 40.4 86.3 40.4 83.9 40.3L83.9 46.2C86.2 46.7 89.4 46.9 92.6 46.9C99.4 46.9 102.5 44.2 104.8 36.3L112.6 10.2ZM80.4 36.9L80.4 31.2C79.8 31.2 78.2 31.3 77 31.3C75.1 31.3 75.1 30.8 75.1 28.9L75.1 16.8L80.5 16.8L80.5 10.2L75.1 10.2L75.1 3.5L65.1 3.5L65.1 10.2L60.7 10.2L60.7 16.4L65.1 16.8L65.1 29C65.1 35.3 67.9 37.7 74 37.7C77.1 37.7 79.8 37.1 80.4 36.9M58.5 16.8L58.5 10.2L52.9 10.2L52.9 8.5C52.9 6.6 53.1 6 55.1 6C56 6 56.9 6 58.5 6.1L58.5 0.8C56.6 0.4 54.1 0 51.5 0C45.7 0 42.7 2.5 42.7 8.4L42.7 10.2L38.5 10.2L38.5 16.4L42.7 16.8L42.7 37L52.8 37L52.8 16.8L58.5 16.8ZM34.6 0.7L24.1 0.7L24.1 7L34.5 7L34.5 0.7L34.6 0.7ZM34.4 10.2L24.3 10.2L24.3 37L34.4 37L34.4 10.2ZM19.8 16.8L19.8 10.2L14.2 10.2L14.2 8.5C14.2 6.6 14.4 6 16.4 6C17.3 6 18.2 6 19.8 6.1L19.8 0.8C18 0.4 15.5 0 12.9 0C7.1 0 4.2 2.5 4.2 8.4L4.2 10.2L0 10.2L0 16.4L4.2 16.8L4.2 37L14.3 37L14.3 16.8L19.8 16.8Z" fill="#000000" fill-rule="nonzero" opacity="1" stroke="none"/>
</g>
</g>
</svg>
