<?xml version="1.0" encoding="UTF-8" standalone="no"?>
<!DOCTYPE svg PUBLIC "-//W3C//DTD SVG 1.1//EN" "http://www.w3.org/Graphics/SVG/1.1/DTD/svg11.dtd">
<!-- Created with Vectornator (http://vectornator.io/) -->
<svg height="100%" stroke-miterlimit="10" style="fill-rule:nonzero;clip-rule:evenodd;stroke-linecap:round;stroke-linejoin:round;" version="1.1" viewBox="0 0 41 37" width="100%" xml:space="preserve" xmlns="http://www.w3.org/2000/svg" xmlns:xlink="http://www.w3.org/1999/xlink">
<defs/>
<g id="Layer-1">
<path d="M40.9758 16.8L40.9758 10.2L35.3261 10.2L35.3261 8.5C35.3261 6.6 35.5279 6 37.5456 6C38.4536 6 39.3616 6 40.9758 6.1L40.9758 0.8C39.1599 0.4 36.6377 0 34.0146 0C28.1631 0 25.2373 2.5 25.2373 8.4L25.2373 10.2L21 10.2L21 16.4L25.2373 16.8L25.2373 37L35.427 37L35.427 16.8L40.9758 16.8Z" fill="#983e97" fill-rule="nonzero" opacity="1" stroke="none"/>
<path d="M19.9758 16.8L19.9758 10.2L14.3261 10.2L14.3261 8.5C14.3261 6.6 14.5279 6 16.5456 6C17.4536 6 18.3616 6 19.9758 6.1L19.9758 0.8C18.1599 0.4 15.6377 0 13.0146 0C7.16306 0 4.2373 2.5 4.2373 8.4L4.2373 10.2L0 10.2L0 16.4L4.2373 16.8L4.2373 37L14.427 37L14.427 16.8L19.9758 16.8Z" fill="#000000" fill-rule="nonzero" opacity="1" stroke="none"/>
</g>
</svg>
