<?xml version="1.0" encoding="UTF-8"?>
<!--Generator: Apple Native CoreSVG 232.5-->
<!DOCTYPE svg
PUBLIC "-//W3C//DTD SVG 1.1//EN"
       "http://www.w3.org/Graphics/SVG/1.1/DTD/svg11.dtd">
<svg version="1.1" xmlns="http://www.w3.org/2000/svg" xmlns:xlink="http://www.w3.org/1999/xlink" width="28.8066" height="34.2094">
 <g>
  <rect height="34.2094" opacity="0" width="28.8066" x="0" y="0"/>
  <path d="M26.5918 8.15647L26.5918 28.4865C26.5918 31.344 25.1699 32.7658 22.3535 32.7658L12.799 32.7658C15.1269 32.44 17.5457 31.9568 20.248 31.2072C23.0234 30.4143 24.2949 28.6369 24.2949 25.4514L24.2949 5.43577C24.2949 4.9719 24.2596 4.53426 24.1873 4.12772C25.7866 4.66115 26.5918 6.00622 26.5918 8.15647Z" fill="#000000" fill-opacity="0.85"/>
  <path d="M1.85938 28.0627C1.85938 30.4416 3.33594 31.6721 5.86523 31.5217C10.459 31.2756 14.5195 30.8518 19.7422 29.4162C21.6836 28.8694 22.4355 27.844 22.4355 25.4514L22.4355 5.43577C22.4355 2.71506 20.9727 1.38889 18.3477 2.00412C14.5195 2.86545 10.459 3.54905 5.53711 3.83616C3.32227 3.97287 1.85938 5.23069 1.85938 7.7053ZM4.06055 27.6662L4.06055 7.65061C4.06055 6.50217 4.77148 6.051 5.79688 5.99631C10.5 5.75022 14.4785 5.06662 18.2246 4.21897C19.4961 3.93186 20.2344 4.58811 20.2344 5.81858L20.2344 25.3694C20.2344 26.6272 19.8105 27.1877 18.7578 27.4612C14.4785 28.6506 10.5 29.0881 5.96094 29.3205C4.77148 29.3752 4.06055 28.7737 4.06055 27.6662Z" fill="#000000" fill-opacity="0.85"/>
  <path d="M7.06836 10.8362C10.9375 10.5901 14.0547 10.0569 17.2402 9.34592C17.8691 9.2092 18.0195 8.89475 18.0195 8.51194C18.0195 8.08811 17.6914 7.71897 17.0898 7.84202C14.0547 8.51194 10.9375 9.05881 7.06836 9.30491C6.52148 9.34592 6.27539 9.67405 6.27539 10.0979C6.27539 10.5354 6.60352 10.8635 7.06836 10.8362ZM7.06836 15.2385C10.9375 14.9924 14.0547 14.4455 17.2402 13.7483C17.8691 13.6115 18.0195 13.2971 18.0195 12.9143C18.0195 12.4905 17.6914 12.1213 17.0898 12.2444C14.0547 12.9143 10.9375 13.4612 7.06836 13.7072C6.52148 13.7483 6.27539 14.0764 6.27539 14.4865C6.27539 14.924 6.60352 15.2658 7.06836 15.2385ZM7.06836 19.6408C10.9375 19.3947 14.0547 18.8479 17.2402 18.1506C17.8691 18.0139 18.0195 17.6994 18.0195 17.3166C18.0195 16.8928 17.6914 16.5237 17.0898 16.6467C14.0547 17.3166 10.9375 17.8635 7.06836 18.1096C6.52148 18.1506 6.27539 18.4787 6.27539 18.8889C6.27539 19.3264 6.60352 19.6682 7.06836 19.6408ZM7.06836 24.0295C9.31055 23.9065 10.8008 23.6877 12.2773 23.4553C12.7285 23.3733 12.9746 23.0178 12.9746 22.6623C12.9746 22.2522 12.6465 21.8557 12.0312 21.9651C10.7188 22.1701 9.26953 22.3752 7.06836 22.4983C6.52148 22.5393 6.27539 22.8674 6.27539 23.2776C6.27539 23.7151 6.60352 24.0569 7.06836 24.0295Z" fill="#000000" fill-opacity="0.85"/>
 </g>
</svg>
